<svg id="Capa_1" enable-background="new 0 0 512 512" height="512" viewBox="0 0 512 512" width="512" xmlns="http://www.w3.org/2000/svg"><g><g><path d="m32.944 406.853h65.991v34.485h-65.991z" fill="#5a5555"/></g><g><path d="m159.123 406.853h65.991v34.485h-65.991z" fill="#5a5555"/></g><g><path d="m285.302 406.853h65.991v34.485h-65.991z" fill="#5a5555"/></g><g><path d="m411.481 406.853h65.991v34.485h-65.991z" fill="#5a5555"/></g><g><path d="m41.05 207.339h176.068v167.919h-176.068z" fill="#cf9875"/></g><g><path d="m217.118 206.988h-176.068v-155.411c0-6.908 5.6-12.508 12.508-12.508h163.56z" fill="#cf9875"/></g><g><path d="m393.187 137.186h-176.069v-98.118h163.56c6.908 0 12.508 5.6 12.508 12.508v85.61z" fill="#c7865b"/></g><g><path d="m466.744 375.258h-249.626v-238.072h237.117c6.908 0 12.508 5.6 12.508 12.508v225.564z" fill="#cf9875"/></g><g><path d="m187.118 207.339h30v167.919h-30z" fill="#c7865b"/></g><g><path d="m187.118 39.068h30v167.919h-30z" fill="#c7865b"/></g><g><path d="m380.678 39.068h-30c6.908 0 12.508 5.6 12.508 12.508v85.609h30v-85.608c.001-6.909-5.6-12.509-12.508-12.509z" fill="#c27e4e"/></g><g><path d="m454.235 137.186h-30c6.908 0 12.508 5.6 12.508 12.509v225.564h30v-225.564c.001-6.909-5.599-12.509-12.508-12.509z" fill="#c7865b"/></g><g><path d="m7.5 375.258h497v31.594h-497z" fill="#b4aaaa"/></g><g><path d="m7.5 441.337h497v31.594h-497z" fill="#b4aaaa"/></g><g><path d="m103.959 207.339h50.251v50.251h-50.251z" fill="#c27e4e"/></g><g><path d="m103.959 39.068h50.251v50.251h-50.251z" fill="#cf9875"/></g><g><path d="m280.027 39.068h50.251v50.251h-50.251z" fill="#b36d3c"/></g><g><path d="m317.821 137.186h48.221v71.244h-48.221z" fill="#c27e4e"/></g><path d="m154.21 45.187v44.132h-50.251v-44.132" fill="#c27e4e"/><g><path d="m504.5 414.353c4.142 0 7.5-3.358 7.5-7.5v-31.594c0-4.142-3.358-7.5-7.5-7.5h-30.256v-81.536c0-4.142-3.358-7.5-7.5-7.5s-7.5 3.358-7.5 7.5v81.536h-234.626v-160.42-.351-62.302h85.703v63.744c0 4.142 3.358 7.5 7.5 7.5h48.221c4.142 0 7.5-3.358 7.5-7.5v-63.744h19.645 61.049c2.762 0 5.008 2.247 5.008 5.009v106.527c0 4.142 3.358 7.5 7.5 7.5s7.5-3.358 7.5-7.5v-106.527c0-11.033-8.976-20.009-20.008-20.009h-53.549v-78.109c0-11.033-8.976-20.008-20.008-20.008h-327.12c-11.033 0-20.008 8.976-20.008 20.008v60.391c0 4.142 3.358 7.5 7.5 7.5s7.5-3.358 7.5-7.5v-60.391c0-2.762 2.247-5.008 5.008-5.008h42.9v42.751c0 4.142 3.358 7.5 7.5 7.5h50.251c4.142 0 7.5-3.358 7.5-7.5v-42.752h47.909v90.618 62.302h-161.069v-57.52c0-4.142-3.358-7.5-7.5-7.5s-7.5 3.358-7.5 7.5v225.79h-26.05c-4.142 0-7.5 3.358-7.5 7.5v31.594c0 4.142 3.358 7.5 7.5 7.5h17.944v19.485h-17.944c-4.142 0-7.5 3.358-7.5 7.5v31.594c0 4.142 3.358 7.5 7.5 7.5h497c4.142 0 7.5-3.358 7.5-7.5v-31.594c0-4.142-3.358-7.5-7.5-7.5h-19.528v-19.485h19.528zm-357.79-332.534h-35.251v-35.251h35.251zm-35.251 133.02h35.251v35.251h-35.251zm247.083-13.909h-33.221v-56.244h33.221zm27.144-149.353v78.109h-19.645-48.221-93.203v-83.118h47.909v42.751c0 4.142 3.358 7.5 7.5 7.5h50.251c4.142 0 7.5-3.358 7.5-7.5v-42.751h42.9c2.763 0 5.009 2.247 5.009 5.009zm-98.159-5.009h35.251v35.251h-35.251zm-238.977 168.271h47.909v42.75c0 4.142 3.358 7.5 7.5 7.5h50.251c4.142 0 7.5-3.358 7.5-7.5v-42.75h47.909v152.919h-161.069zm-33.55 167.919h26.05 176.068 249.625 30.257v16.594h-482zm343.793 51.079v-19.485h45.188v19.485zm-207.17-19.484v19.485h-45.188v-19.485zm15 0h50.991v19.485h-50.991zm65.991 0h45.188v19.485h-45.188zm60.188 0h50.991v19.485h-50.991zm-252.358 0h50.991v19.485h-50.991zm456.556 51.079h-482v-16.594h482zm-27.028-31.595h-50.991v-19.485h50.991z"/><path d="m264.483 280.506h37.024c4.142 0 7.5-3.358 7.5-7.5s-3.358-7.5-7.5-7.5h-37.024c-4.142 0-7.5 3.358-7.5 7.5s3.358 7.5 7.5 7.5z"/><path d="m264.483 313.074h58.855c4.142 0 7.5-3.358 7.5-7.5s-3.358-7.5-7.5-7.5h-58.855c-4.142 0-7.5 3.358-7.5 7.5s3.358 7.5 7.5 7.5z"/></g></g></svg>